<svg viewBox="0 0 370 153" xmlns="http://www.w3.org/2000/svg">

  <g class="logotype-borodinsky__barbershop" fill="white">
    <path d="M120.042 11.43C127.193 9 127.784 0 120.693 0C118.69 0 116.406 1.37 114.804 4.17L105.159 20.73C104.766 21.4383 104.307 22.1079 103.787 22.73C101.323 19.34 102.045 14.28 105.5 12.06L104.158 10.27C96.6864 15.02 98.8798 28.75 111.349 28.75C121.965 28.74 126.892 16 120.042 11.43ZM111.238 26C109.448 26.0451 107.676 25.621 106.101 24.77C106.768 23.9801 107.364 23.1336 107.883 22.24L113.892 11.87L114.894 11.97C123.187 13.72 119.872 26 111.238 26ZM115.074 9.79L117.949 4.86C120.553 0.38 123.878 3.01 122.095 6.36C120.723 8.93 118.7 9.72 115.074 9.79Z M259.603 19L259.363 19.27C257.644 21.4528 255.407 23.1717 252.853 24.27C253.434 23.35 253.854 22.35 254.325 21.6L258.261 14.86C261.586 9.22 256.208 7.33 252.572 10.58L253.294 9.35H249.728L244.16 19L243.919 19.27C243.246 20.0474 242.423 20.681 241.499 21.1329C240.575 21.5849 239.569 21.8458 238.541 21.9L241.896 16.12C244.06 12.39 242.067 8.87 238.711 8.87C235.967 8.87 233.844 9.96 231.791 13.52L230.038 16.52L228.576 19L228.386 19.22C225.812 22.22 223.318 24.56 221.736 24.56C220.945 24.56 220.504 24.01 221.325 22.56L226.463 13.56C228.005 10.86 226.533 8.91 224.54 8.91C222.998 8.91 221.355 9.76 219.532 11.61L225.221 1.72H221.656L211.771 19L211.57 19.23C210.327 20.7003 208.896 22.0014 207.314 23.1C208.446 19.71 208.205 14.51 210.399 9.96L207.725 8.52C206.252 10.52 203.027 15.19 199.813 18.95L199.572 19.22C196.998 22.22 194.505 24.56 192.922 24.56C192.131 24.56 191.69 24.01 192.511 22.56L196.077 16.33C197.309 14.17 196.728 12.91 195.566 11.51L193.563 9.12C193.434 8.9857 193.332 8.82695 193.265 8.65307C193.198 8.47919 193.166 8.29366 193.172 8.10738C193.178 7.92111 193.22 7.73782 193.298 7.56826C193.375 7.39871 193.486 7.24631 193.623 7.12L193.733 7.03L191.881 5.03C189.877 6.84 189.687 8.86 190.959 10.5L191.26 10.91C189.687 13.13 187.564 16.14 185.251 18.91L185.01 19.18C182.436 22.18 179.151 24.52 176.647 24.52C174.454 24.52 173.152 23.15 174.795 20.28L175.135 19.66C177.429 20.66 181.745 20.17 184.419 15.56L184.93 14.67C186.853 11.39 185 8.92 182.086 8.92C180.71 8.92971 179.363 9.31501 178.191 10.0342C177.019 10.7533 176.066 11.779 175.436 13L171.96 19L171.75 19.24C171.079 20.02 170.257 20.6555 169.332 21.1077C168.407 21.5598 167.4 21.8192 166.372 21.87L169.727 16.09C170.516 14.8632 170.978 13.4553 171.069 12C171.093 11.6067 171.04 11.2124 170.912 10.8397C170.784 10.467 170.583 10.1231 170.322 9.82784C170.06 9.53253 169.743 9.29152 169.389 9.11859C169.034 8.94567 168.649 8.8442 168.255 8.82H167.834C166.995 8.84363 166.181 9.11889 165.501 9.61L170.027 1.78H166.392L156.417 19L156.227 19.21C153.653 22.21 151.159 24.55 149.577 24.55C148.785 24.55 148.345 24 149.166 22.55L152.731 16.32C153.963 14.16 153.382 12.9 152.221 11.5L150.217 9.11C150.087 8.97572 149.986 8.81664 149.919 8.64227C149.852 8.4679 149.82 8.28181 149.827 8.09513C149.834 7.90844 149.878 7.72499 149.957 7.55573C150.036 7.38647 150.148 7.23488 150.288 7.11L150.428 7L148.575 5C146.572 6.81 146.382 8.83 147.654 10.47L147.964 10.88C146.392 13.1 144.258 16.11 141.955 18.88L141.715 19.15C139.141 22.15 136.647 24.49 135.065 24.49C134.273 24.49 133.833 23.94 134.654 22.49L140.413 12.43H138.41C138.343 11.4849 137.915 10.6016 137.214 9.96304C136.513 9.32451 135.593 8.97969 134.644 9C132.721 9 130.057 10.51 128.545 13.11L123.537 21.73C122.025 24.37 123.096 26.79 125.971 26.79C127.413 26.79 129.196 25.87 130.908 24.46C131.079 25.83 132.18 26.79 133.993 26.79C136.937 26.79 140.333 23.64 143.277 20.22C144.99 18.22 146.282 16.46 149.166 12.59L149.647 13.17C149.885 13.4406 150.033 13.7784 150.07 14.1366C150.108 14.4948 150.034 14.8559 149.857 15.17L146.091 21.7C144.589 24.34 145.651 26.76 148.525 26.76C150.588 26.76 152.872 25.21 155.075 23.11C155.075 25.54 156.888 26.91 159.191 26.91C160.377 26.8475 161.533 26.5182 162.574 25.9468C163.614 25.3753 164.512 24.5765 165.2 23.61C165.463 23.63 165.728 23.63 165.991 23.61C167.657 23.5309 169.279 23.0506 170.718 22.21C170.528 24.78 172.401 26.73 175.546 26.73C179.552 26.73 183.558 23.58 186.562 20.16C188.275 18.16 189.567 16.4 192.451 12.53L192.932 13.11C193.17 13.3806 193.318 13.7184 193.356 14.0766C193.394 14.4348 193.319 14.7959 193.142 15.11L189.377 21.64C187.864 24.28 188.936 26.7 191.81 26.7C194.685 26.7 198.15 23.55 201.094 20.13C203.098 17.8 204.9 15.31 206.162 13.63C204.76 17.33 205.511 23.96 202.156 23.96C201.782 23.923 201.425 23.7814 201.128 23.5515C200.83 23.3216 200.603 23.0126 200.474 22.66L198.3 23.82C198.529 24.6697 199.04 25.4165 199.75 25.938C200.46 26.4595 201.326 26.7247 202.206 26.69C202.547 26.69 202.877 26.69 203.208 26.62H203.308C205.297 26.2823 207.175 25.4729 208.786 24.26L207.564 26.38H211.16L216.568 16.97C222.056 10.09 224.48 10.97 222.938 13.62L218.311 21.62C216.798 24.25 217.87 26.68 220.744 26.68C222.817 26.68 225.101 25.12 227.304 23.01C227.304 27.55 233.604 28.43 237.47 23.56H238.261C239.584 23.5101 240.882 23.1902 242.077 22.62L235.587 33.86H239.182L249.838 15.35C253.844 9.94 256.318 11.93 255.387 13.54L250.009 22.85C249.911 23.1126 249.736 23.3392 249.506 23.4992C249.276 23.6592 249.002 23.7449 248.722 23.7449C248.441 23.7449 248.168 23.6592 247.937 23.4992C247.707 23.3392 247.532 23.1126 247.435 22.85L245.432 23.85C245.66 24.6997 246.171 25.4465 246.881 25.968C247.591 26.4895 248.457 26.7547 249.338 26.72H249.548C254.726 26.62 258.111 23.54 261.025 20.15C260.882 19.8693 260.682 19.6218 260.437 19.4236C260.192 19.2255 259.908 19.0811 259.603 19ZM178.48 14C180.483 10.48 184.169 11.06 182.046 14.75L181.535 15.64C179.822 18.55 177.529 18.48 176.187 18L178.48 14ZM132.801 19.61C130.638 23 128.515 24.61 127.042 24.61C126.251 24.61 125.811 24.06 126.632 22.61L131.639 13.95C133.562 10.63 137.358 11.49 135.645 14.7L132.801 19.61ZM159.632 24.47C159.287 24.4894 158.949 24.3738 158.689 24.1477C158.429 23.9217 158.268 23.6031 158.24 23.26C158.235 23.2068 158.235 23.1532 158.24 23.1C158.293 22.4422 158.506 21.8073 158.861 21.25L160.062 19C160.155 19.7403 160.405 20.4524 160.796 21.0887C161.186 21.7249 161.708 22.2709 162.326 22.69C162.058 23.1836 161.67 23.6018 161.197 23.9059C160.724 24.21 160.183 24.3903 159.622 24.43L159.632 24.47ZM163.347 21C162.854 20.6248 162.459 20.136 162.195 19.5753C161.932 19.0147 161.808 18.3987 161.835 17.78C161.835 15.25 164.299 11.11 166.322 11.11C166.502 11.11 166.679 11.1455 166.845 11.2145C167.011 11.2834 167.162 11.3845 167.289 11.5119C167.415 11.6392 167.515 11.7903 167.583 11.9565C167.651 12.1226 167.685 12.3006 167.684 12.48C167.689 12.5366 167.689 12.5934 167.684 12.65C167.65 13.4045 167.415 14.1363 167.003 14.77L163.347 21ZM236.538 19.22H236.358C235.801 19.2253 235.269 19.4499 234.877 19.845C234.485 20.2402 234.265 20.7738 234.265 21.33C234.271 21.7528 234.389 22.1666 234.605 22.53V22.6C232.923 25.47 228.846 24.93 230.97 21.23L235.356 13.62C237.86 9.38 241.285 11.05 239.122 14.75L236.538 19.22Z"/>
  </g>
  
  <g class="logotype-borodinsky__shadow" fill="#636466"> 
    <path d="M190.478 58.25C190.796 58.869 190.961 59.5546 190.959 60.25V94.25C190.944 95.4545 190.457 96.6054 189.604 97.4572C188.751 98.309 187.599 98.7944 186.392 98.81H172.812V100.89H188.475C189.682 100.874 190.834 100.389 191.687 99.5372C192.541 98.6854 193.027 97.5345 193.042 96.33V62.33C193.039 61.4788 192.797 60.6455 192.344 59.9244C191.891 59.2034 191.245 58.6233 190.478 58.25Z M211.56 57.77V98.77H206.242V100.86H213.643V57.77H211.56Z M244.49 57.77V98.77H238.581L239.172 100.86H246.583V57.77H244.49Z M231.661 80V98.79H226.343V100.88H233.744V87.19L231.661 80Z M263.98 83H270.099V80.87H261.896C261.201 80.8665 260.515 80.7022 259.893 80.39C260.257 81.1665 260.835 81.824 261.558 82.286C262.281 82.7481 263.121 82.9956 263.98 83Z M266.814 85.73L264.721 86.21V91.34H266.814V85.73Z M277.079 58.25C277.397 58.869 277.562 59.5546 277.56 60.25V69L272.182 70.24V72.8L279.643 71.07V62.32C279.638 61.4705 279.395 60.6393 278.942 59.9202C278.489 59.201 277.844 58.6226 277.079 58.25Z M92.2798 58.25C92.5971 58.869 92.7619 59.5546 92.7605 60.25V94.25C92.7449 95.4546 92.2588 96.6054 91.4056 97.4572C90.5525 98.309 89.3999 98.7944 88.1936 98.81H77.1168C76.421 98.8065 75.7354 98.6423 75.1138 98.33C75.4869 99.0935 76.0663 99.7377 76.7865 100.19C77.5067 100.642 78.3391 100.885 79.1899 100.89H90.2867C91.4931 100.874 92.6457 100.389 93.4988 99.5372C94.3519 98.6854 94.8381 97.5346 94.8536 96.33V62.33C94.8505 61.4775 94.6076 60.6429 94.1525 59.9216C93.6974 59.2002 93.0485 58.621 92.2798 58.25Z M112.991 73.48H115.074V65.16H118.359V63.07H112.991V73.48Z M125.26 82.48C126.036 82.1221 126.693 81.5493 127.153 80.8296C127.612 80.1099 127.856 79.2736 127.854 78.42V62.32C127.854 61.4641 127.613 60.6253 127.158 59.9C126.702 59.1748 126.052 58.5925 125.28 58.22C125.592 58.8407 125.757 59.5252 125.76 60.22V76.37C125.767 77.2234 125.529 78.0609 125.072 78.7825C124.616 79.5041 123.961 80.0795 123.187 80.44L126.271 98.79H120.583L120.933 100.87H128.334L125.26 82.48Z M115.825 80.83H112.991V98.79H107.673V100.88H115.074V83H116.176L115.825 80.83Z M145.06 91.3H147.153V65.16H150.428V63.07H145.06V91.3Z M46.8711 73.48H48.9543V65.16H52.2293V63.07H46.8711V73.48Z M61.7837 75V62.32C61.7785 61.4705 61.5357 60.6393 61.0827 59.9202C60.6297 59.2011 59.9845 58.6226 59.2198 58.25C59.5372 58.869 59.702 59.5546 59.7006 60.25V72.93C59.711 73.5981 59.5716 74.26 59.2926 74.8674C59.0136 75.4747 58.602 76.012 58.0881 76.44C58.5981 76.9129 59.008 77.4831 59.2936 78.1169C59.5791 78.7507 59.7345 79.4352 59.7506 80.13V94.23C59.7348 95.4518 59.2348 96.6176 58.3601 97.4722C57.4855 98.3269 56.3073 98.8007 55.0836 98.79H41.5531V100.87H57.2168C58.4232 100.854 59.5758 100.369 60.4289 99.5172C61.282 98.6654 61.7682 97.5145 61.7837 96.31V82.21C61.7643 81.5129 61.6045 80.8269 61.3137 80.193C61.0229 79.559 60.6071 78.99 60.0912 78.52C60.6239 78.1014 61.0534 77.5664 61.3468 76.9562C61.6402 76.3461 61.7897 75.6768 61.7837 75Z M157.899 60.25C157.902 59.5545 157.737 58.8686 157.418 58.25C158.181 58.6252 158.824 59.2062 159.274 59.9273C159.723 60.6483 159.962 61.4806 159.962 62.33V96.33C159.947 97.5345 159.46 98.6854 158.607 99.5372C157.754 100.389 156.602 100.874 155.395 100.89H144.288C143.438 100.885 142.605 100.642 141.885 100.19C141.165 99.7377 140.585 99.0935 140.212 98.33C140.834 98.6423 141.519 98.8065 142.215 98.81H153.332C154.539 98.7944 155.691 98.309 156.544 97.4572C157.397 96.6054 157.883 95.4546 157.899 94.25V60.25Z M180.213 91.34H178.12V63.07H183.488V65.16H180.213V91.34Z M277.56 78.05C277.562 77.3546 277.397 76.669 277.079 76.05C277.841 76.4245 278.483 77.0039 278.932 77.723C279.382 78.4421 279.621 79.2723 279.623 80.12V96.33C279.608 97.5345 279.122 98.6854 278.268 99.5372C277.415 100.389 276.263 100.874 275.056 100.89H263.96C263.109 100.885 262.276 100.642 261.556 100.19C260.836 99.7377 260.257 99.0935 259.883 98.33C260.505 98.6422 261.191 98.8065 261.886 98.81H272.993C274.2 98.7944 275.352 98.309 276.205 97.4572C277.058 96.6054 277.545 95.4545 277.56 94.25V78.05Z M264.721 73.48V63.05L270.089 63.07V65.16H266.814V73.48H264.721Z M297.771 80.87H298.452L299.844 85.35V100.88H292.443V98.79H297.771V80.87Z M310.871 57.77H313.635L306.724 79.26L313.635 100.88H306.173L306.113 100.63L305.533 98.79H311.542L304.631 77.18L310.871 57.77Z M331.021 98.77V57.77H333.104V100.86H325.713V98.77H331.021Z M362.188 82.91L367.907 77.19L370 79.28L364.271 85L362.188 82.91Z M9.65466 82.91L15.3733 77.2L17.4665 79.28L11.7779 85L9.65466 82.91Z M48.9541 91.34H46.871V80.87H52.2291V83H48.9541V91.34Z M82.0042 91.34H79.921L79.931 63.07H85.2791V65.16H82.0042V91.34Z"/>
  </g>

  <g class="logotype-borodinsky__boridinsky" fill="white">
    <path d="M55.7344 69C55.7383 69.6667 55.5918 70.3258 55.3057 70.9282C55.0197 71.5307 54.6014 72.0611 54.0819 72.48C54.5919 72.9529 55.0018 73.5231 55.2874 74.1569C55.5729 74.7907 55.7283 75.4752 55.7444 76.17V90.27C55.7289 91.4745 55.2427 92.6254 54.3896 93.4772C53.5365 94.329 52.3839 94.8145 51.1775 94.83H35.5038V51.72H51.1675C52.3771 51.7253 53.5356 52.2074 54.391 53.0614C55.2463 53.9154 55.7291 55.0722 55.7344 56.28V69ZM48.2731 59.11H42.905V69.52H48.2731V59.11ZM48.2731 76.91H42.905V87.38H48.2731V76.91ZM84.2275 51.72C85.4371 51.7253 86.5957 52.2074 87.451 53.0614C88.3063 53.9154 88.7892 55.0722 88.7944 56.28V90.28C88.7789 91.4845 88.2927 92.6354 87.4396 93.4872C86.5865 94.339 85.4339 94.8244 84.2275 94.84H73.1107C71.9027 94.8295 70.7472 94.3458 69.893 93.4929C69.0388 92.64 68.5543 91.4862 68.5438 90.28V56.28C68.5438 55.0706 69.025 53.9108 69.8814 53.0556C70.7379 52.2004 71.8995 51.72 73.1107 51.72H84.2275ZM81.3231 59.11H75.965V87.38H81.3332L81.3231 59.11ZM114.884 94.83L111.879 76.91H109.045V94.83H101.644V51.72H117.308C117.903 51.7239 118.493 51.845 119.042 52.0763C119.59 52.3076 120.088 52.6446 120.507 53.068C120.925 53.4914 121.256 53.993 121.481 54.5441C121.705 55.0953 121.818 55.6851 121.814 56.28V72.42C121.813 73.278 121.564 74.1174 121.097 74.8375C120.629 75.5577 119.964 76.1279 119.18 76.48L122.265 94.83H114.884ZM114.393 59.11H109.025V69.52H114.393V59.11ZM149.366 51.72C150.576 51.7253 151.734 52.2074 152.59 53.0614C153.445 53.9154 153.928 55.0722 153.933 56.28V90.28C153.917 91.4845 153.431 92.6354 152.578 93.4872C151.725 94.339 150.573 94.8244 149.366 94.84H138.269C137.061 94.8295 135.906 94.3458 135.052 93.4929C134.197 92.64 133.713 91.4862 133.702 90.28V56.28C133.702 55.0809 134.175 53.9301 135.019 53.0766C135.862 52.2232 137.008 51.7358 138.209 51.72H149.366ZM146.462 59.11H141.094V87.38H146.462V59.11ZM182.426 51.72C183.636 51.7253 184.794 52.2074 185.65 53.0614C186.505 53.9154 186.988 55.0722 186.993 56.28V90.28C186.978 91.4845 186.491 92.6354 185.638 93.4872C184.785 94.339 183.633 94.8244 182.426 94.84H166.762V51.72H182.426ZM179.532 59.11H174.164V87.38H179.532V59.11ZM200.193 51.72H207.594V94.83H200.193V51.72ZM240.534 51.72V94.83H233.133L227.705 76V94.83H220.334V51.72H227.675L233.103 69.39V51.72H240.534ZM269.027 69.52C270.237 69.5253 271.395 70.0074 272.251 70.8614C273.106 71.7154 273.589 72.8722 273.594 74.08V90.28C273.579 91.4845 273.092 92.6354 272.239 93.4872C271.386 94.339 270.234 94.8244 269.027 94.84H257.93C256.726 94.8243 255.576 94.3383 254.726 93.4859C253.876 92.6336 253.394 91.4827 253.384 90.28V81.41L260.785 79.69V87.39H266.153V76.91H257.951C257.352 76.9113 256.759 76.7949 256.206 76.5675C255.652 76.34 255.149 76.006 254.725 75.5844C254.301 75.1628 253.965 74.662 253.734 74.1104C253.504 73.5589 253.385 72.9675 253.384 72.37V56.28C253.384 55.0741 253.862 53.9172 254.714 53.0626C255.566 52.2081 256.723 51.7253 257.93 51.72H269.047C270.257 51.7253 271.415 52.2074 272.271 53.0614C273.126 53.9154 273.609 55.0722 273.614 56.28V65L266.153 66.73V59.11H260.785V69.52H269.027ZM300.675 73.22L307.586 94.84H300.124L300.064 94.59L294.516 76.92H293.835V94.83H286.434V51.72H293.835V69.52H294.446L300.124 51.72H307.646L300.675 73.22ZM319.704 51.72H327.105V94.83H319.704V51.72Z M357.729 67L352 72.71L357.749 78.45L363.447 72.72L357.729 67Z M5.71866 67L0 72.72L5.71866 78.46L11.4473 72.72L5.71866 67Z"/>
  </g>

  <g class="logotype-borodinsky__moustache" fill="white">  
    <path d="M168.155 123.85H169.567C175.005 124.13 179.272 125.58 181.976 128.57C184.72 125.57 188.986 124.11 194.455 123.85H195.807C207.935 124.67 213.463 133.35 223.148 137.04C224.653 137.723 226.292 138.065 227.945 138.04C230.429 137.77 232.011 135.26 231.691 132.46C231.35 129.46 228.406 126.85 225.121 128.29C224.69 128.492 224.294 128.762 223.949 129.09C223.699 129.32 223.418 129.92 222.777 129.7C222.177 129.2 222.777 128.47 223.088 128.05C223.681 126.997 224.579 126.147 225.663 125.612C226.748 125.077 227.969 124.881 229.167 125.05C234.806 125.45 239.853 130.39 238.992 137.87C237.069 149 226.874 152 214.785 153H210.849C200.3 152.57 190.181 148.707 182.036 142C173.83 148.69 163.676 152.549 153.092 153H149.226C137.048 151.93 126.752 149 124.959 137.54C124.278 129.38 129.146 125.37 134.794 124.96C136.002 124.789 137.234 124.983 138.33 125.518C139.426 126.052 140.337 126.903 140.944 127.96C141.224 128.42 141.745 129.13 141.254 129.68C140.643 129.79 140.343 129.31 140.082 129.07C139.716 128.689 139.278 128.384 138.793 128.173C138.309 127.962 137.787 127.849 137.258 127.84C133.392 127.7 131.169 131.99 132.711 135.45C133.013 136.121 133.482 136.705 134.072 137.146C134.663 137.587 135.356 137.87 136.086 137.97C137.738 137.981 139.374 137.64 140.883 136.97C142.23 136.454 143.527 135.818 144.759 135.07C152.12 130.81 157.879 124.76 168.155 123.85V123.85Z" />
  </g>

</svg>
