<svg viewBox="0 0 226 30" xmlns="http://www.w3.org/2000/svg">
  
  <g fill="#636466">
    <path d="M116.346 3.98415C116.54 4.36181 116.641 4.78012 116.64 5.2044V25.9488C116.631 26.6837 116.333 27.3859 115.812 27.9056C115.291 28.4253 114.587 28.7214 113.85 28.7309H105.555V30H115.123C115.86 29.9902 116.563 29.6943 117.084 29.1746C117.606 28.6549 117.903 27.9527 117.912 27.2178V6.47347C117.91 5.95413 117.762 5.44571 117.486 5.00574C117.209 4.56584 116.814 4.21191 116.346 3.98415ZM129.223 3.69128V28.7065H125.975V29.9817H130.495V3.69128H129.223ZM149.337 3.69128V28.7065H145.728L146.089 29.9817H150.616V3.69128H149.337ZM141.501 17.2544V28.7187H138.253V29.9939H142.773V21.6413L141.501 17.2544ZM161.242 19.0848H164.979V17.7852H159.969C159.544 17.7831 159.125 17.6829 158.745 17.4924C158.968 17.9661 159.321 18.3673 159.762 18.6492C160.204 18.9311 160.717 19.0821 161.242 19.0848ZM162.973 20.7505L161.694 21.0433V24.1733H162.973V20.7505ZM169.243 3.98415C169.437 4.36181 169.538 4.78012 169.537 5.2044V10.543L166.252 11.2996V12.8615L170.809 11.806V6.46737C170.806 5.94906 170.657 5.44192 170.381 5.00318C170.104 4.56438 169.71 4.21148 169.243 3.98415ZM56.3655 3.98415C56.5593 4.36181 56.66 4.78012 56.6591 5.2044V25.9488C56.6496 26.6837 56.3527 27.3859 55.8315 27.9056C55.3104 28.4253 54.6064 28.7214 53.8696 28.7309H47.1038C46.6788 28.7288 46.26 28.6286 45.8803 28.4381C46.1082 28.9039 46.4621 29.297 46.902 29.5729C47.3419 29.8487 47.8504 29.997 48.37 30H55.1481C55.885 29.9902 56.589 29.6943 57.1101 29.1746C57.6311 28.6549 57.9281 27.9528 57.9376 27.2178V6.47347C57.9357 5.95333 57.7873 5.44412 57.5093 5.00404C57.2314 4.56389 56.835 4.2105 56.3655 3.98415ZM69.0161 13.2764H70.2884V8.20013H72.2949V6.92496H69.0161V13.2764ZM76.5101 18.7676C76.9841 18.5492 77.3854 18.1997 77.6664 17.7606C77.9468 17.3215 78.0958 16.8112 78.0946 16.2904V6.46737C78.0946 5.94516 77.9474 5.43338 77.6695 4.99086C77.3909 4.54839 76.9939 4.19312 76.5224 3.96584C76.7129 4.34455 76.8137 4.76218 76.8156 5.1861V15.0397C76.8198 15.5604 76.6745 16.0713 76.3953 16.5116C76.1168 16.9519 75.7167 17.3029 75.2439 17.5229L77.1277 28.7187H73.6534L73.8672 29.9878H78.3878L76.5101 18.7676ZM70.7471 17.7608H69.0161V28.7187H65.7678V29.9939H70.2884V19.0848H70.9615L70.7471 17.7608ZM88.6042 24.1489H89.8826V8.20013H91.883V6.92496H88.6042V24.1489ZM28.6294 13.2764H29.9018V8.20013H31.9022V6.92496H28.6294V13.2764ZM37.7381 14.2038V6.46737C37.735 5.94906 37.5867 5.44192 37.31 5.00318C37.0333 4.56444 36.6392 4.21148 36.1721 3.98415C36.366 4.36181 36.4666 4.78012 36.4658 5.2044V12.9408C36.4721 13.3485 36.387 13.7523 36.2165 14.1229C36.0461 14.4934 35.7947 14.8212 35.4808 15.0824C35.7923 15.3709 36.0427 15.7188 36.2172 16.1055C36.3915 16.4922 36.4865 16.9098 36.4963 17.3337V25.9366C36.4866 26.682 36.1812 27.3933 35.647 27.9147C35.1128 28.4362 34.3931 28.7253 33.6456 28.7187H25.3811V29.9878H34.9486C35.6855 29.978 36.3895 29.6821 36.9106 29.1624C37.4317 28.6427 37.7287 27.9405 37.7381 27.2056V18.6028C37.7263 18.1775 37.6287 17.7589 37.4511 17.3722C37.2734 16.9854 37.0195 16.6382 36.7043 16.3514C37.0297 16.096 37.2921 15.7696 37.4713 15.3973C37.6505 15.0251 37.7418 14.6167 37.7381 14.2038ZM96.4464 5.2044C96.4482 4.78006 96.3474 4.36157 96.1526 3.98415C96.6186 4.21307 97.0114 4.56755 97.2863 5.00751C97.5605 5.44742 97.7065 5.95523 97.7065 6.47347V27.2178C97.6973 27.9527 97.3999 28.6549 96.8789 29.1746C96.3578 29.6943 95.6542 29.9902 94.9169 30H88.1327C87.6135 29.997 87.1047 29.8487 86.6649 29.5729C86.2251 29.297 85.8708 28.9039 85.643 28.4381C86.0229 28.6286 86.4413 28.7288 86.8664 28.7309H93.6568C94.3941 28.7214 95.0977 28.4253 95.6188 27.9056C96.1398 27.3859 96.4366 26.6837 96.4464 25.9488V5.2044ZM110.076 24.1733H108.798V6.92496H112.076V8.20013H110.076V24.1733ZM169.537 16.0647C169.538 15.6404 169.437 15.2221 169.243 14.8444C169.708 15.0729 170.1 15.4264 170.375 15.8652C170.65 16.3039 170.796 16.8104 170.797 17.3276V27.2178C170.788 27.9527 170.491 28.6549 169.969 29.1746C169.448 29.6943 168.744 29.9902 168.007 30H161.23C160.71 29.997 160.201 29.8487 159.761 29.5729C159.321 29.297 158.968 28.9039 158.739 28.4381C159.119 28.6286 159.538 28.7288 159.963 28.7309H166.747C167.484 28.7214 168.188 28.4253 168.709 27.9056C169.23 27.3859 169.527 26.6837 169.537 25.9488V16.0647ZM161.694 13.2764V6.91276L164.973 6.92496V8.20013H162.973V13.2764H161.694ZM181.882 17.7852H182.298L183.148 20.5186V29.9939H178.627V28.7187H181.882V17.7852ZM189.883 3.69128H191.572L187.35 16.8029L191.572 29.9939H187.014L186.977 29.8414L186.623 28.7187H190.293L186.072 15.5339L189.883 3.69128ZM202.191 28.7065V3.69128H203.464V29.9817H198.949V28.7065H202.191ZM221.228 19.0299L224.722 15.54L226 16.8151L222.501 20.3051L221.228 19.0299ZM5.89716 19.0299L9.39016 15.5461L10.6687 16.8151L7.19405 20.3051L5.89716 19.0299ZM29.9017 24.1733H28.6293V17.7852H31.9021V19.0848H29.9017V24.1733ZM50.089 24.1733H48.8166L48.8227 6.92496H52.0894V8.20013H50.089V24.1733Z"/>
  </g>

  <g fill="white">  
    <path d="M34.0432 10.543C34.0456 10.9498 33.9561 11.3519 33.7813 11.7195C33.6066 12.0871 33.3511 12.4107 33.0338 12.6663C33.3453 12.9548 33.5957 13.3027 33.7701 13.6894C33.9445 14.0761 34.0394 14.4937 34.0493 14.9176V23.5204C34.0398 24.2553 33.7428 24.9575 33.2218 25.4772C32.7007 25.9969 31.9967 26.2932 31.2598 26.3026H21.6861V0H31.2537C31.9925 0.00323368 32.7001 0.297377 33.2226 0.818426C33.745 1.33948 34.0399 2.04527 34.0432 2.78218V10.543ZM29.4857 4.50885H26.2068V10.8603H29.4857V4.50885ZM29.4857 15.3691H26.2068V21.7572H29.4857V15.3691ZM51.4471 0C52.1859 0.00323368 52.8936 0.297377 53.416 0.818426C53.9384 1.33948 54.2334 2.04527 54.2366 2.78218V23.5265C54.2271 24.2614 53.9301 24.9636 53.4091 25.4833C52.888 26.003 52.184 26.2992 51.4471 26.3087H44.6568C43.9189 26.3023 43.2132 26.0072 42.6914 25.4868C42.1696 24.9664 41.8737 24.2625 41.8673 23.5265V2.78218C41.8673 2.04429 42.1612 1.33667 42.6843 0.814886C43.2075 0.293104 43.917 0 44.6568 0H51.4471ZM49.673 4.50885H46.4002V21.7572H49.6792L49.673 4.50885ZM70.1724 26.3026L68.3369 15.3691H66.6059V26.3026H62.0853V0H71.653C72.0164 0.0023795 72.3768 0.0762662 72.7121 0.217389C73.0469 0.358511 73.3511 0.564124 73.607 0.822452C73.8623 1.08078 74.0645 1.38682 74.2019 1.72306C74.3387 2.05937 74.4078 2.41922 74.4053 2.78218V12.6296C74.4047 13.1531 74.2526 13.6653 73.9674 14.1046C73.6815 14.5441 73.2753 14.8919 72.7964 15.1068L74.6808 26.3026H70.1724ZM69.8725 4.50885H66.5937V10.8603H69.8725V4.50885ZM91.2344 0C91.9734 0.00323368 92.6808 0.297377 93.2036 0.818426C93.7259 1.33948 94.0209 2.04527 94.0239 2.78218V23.5265C94.0142 24.2614 93.7173 24.9636 93.1963 25.4833C92.6753 26.003 91.9716 26.2992 91.2344 26.3087H84.4562C83.7183 26.3023 83.0129 26.0072 82.4912 25.4868C81.969 24.9664 81.6733 24.2625 81.6666 23.5265V2.78218C81.6666 2.05058 81.9555 1.34844 82.4711 0.827699C82.986 0.307015 83.686 0.00964002 84.4196 0H91.2344ZM89.4606 4.50885H86.1817V21.7572H89.4606V4.50885ZM111.428 0C112.167 0.00323368 112.874 0.297377 113.397 0.818426C113.919 1.33948 114.214 2.04527 114.217 2.78218V23.5265C114.208 24.2614 113.911 24.9636 113.39 25.4833C112.869 26.003 112.165 26.2992 111.428 26.3087H101.86V0H111.428ZM109.66 4.50885H106.381V21.7572H109.66V4.50885ZM122.28 0H126.801V26.3026H122.28V0ZM146.921 0V26.3026H142.4L139.085 14.8139V26.3026H134.582V0H139.066L142.382 10.781V0H146.921ZM164.325 10.8603C165.064 10.8635 165.771 11.1577 166.294 11.6787C166.816 12.1998 167.111 12.9056 167.114 13.6425V23.5265C167.105 24.2614 166.808 24.9636 166.287 25.4833C165.766 26.003 165.062 26.2992 164.325 26.3087H157.546C156.811 26.2991 156.109 26.0026 155.589 25.4825C155.07 24.9625 154.776 24.2603 154.77 23.5265V18.1147L159.29 17.0653V21.7633H162.569V15.3691H157.559C157.193 15.3699 156.831 15.2989 156.493 15.1602C156.155 15.0214 155.848 14.8176 155.589 14.5603C155.33 14.3031 155.125 13.9976 154.983 13.661C154.843 13.3245 154.77 12.9637 154.77 12.5991V2.78218C154.77 2.04643 155.062 1.34057 155.582 0.819157C156.102 0.297802 156.809 0.00323368 157.546 0H164.337C165.076 0.00323368 165.783 0.297377 166.306 0.818426C166.828 1.33948 167.123 2.04527 167.126 2.78218V8.1025L162.569 9.15802V4.50885H159.29V10.8603H164.325ZM183.656 13.1178L187.877 26.3087H183.319L183.282 26.1562L179.894 15.3752H179.478V26.3026H174.957V0H179.478V10.8603H179.851L183.319 0H187.914L183.656 13.1178ZM195.279 0H199.799V26.3026H195.279V0ZM218.505 9.32276L215.005 12.8066L218.517 16.3087L221.997 12.8127L218.505 9.32276ZM3.49302 9.32276L0 12.8127L3.49302 16.3148L6.99213 12.8127L3.49302 9.32276Z"/>
  </g>
  
</svg>
