<?xml version="1.0" encoding="UTF-8"?><!DOCTYPE svg PUBLIC "-//W3C//DTD SVG 1.1//EN" "http://www.w3.org/Graphics/SVG/1.1/DTD/svg11.dtd"><svg xmlns="http://www.w3.org/2000/svg" xmlns:xlink="http://www.w3.org/1999/xlink"><symbol id="icon-arrow-left" viewBox="0 0 12 12">
<path d="M12 12L0 6L12 0V12Z" fill="black"/>
</symbol><symbol id="icon-arrow-right" viewBox="0 0 12 12">
<path d="M0 0L12 6L0 12L0 0Z" fill="black"/>
</symbol><symbol id="icon-indicator-checkbox" viewBox="0 0 22 16">
<path d="M21.7001 0.284317C21.5105 0.102077 21.2557 0 20.9903 0C20.7249 0 20.47 0.102077 20.2805 0.284317L6.70324 13.6022L1.73472 8.72859C1.64045 8.63536 1.52831 8.56137 1.40474 8.51087C1.28118 8.46038 1.14865 8.43438 1.01479 8.43438C0.88093 8.43438 0.748397 8.46038 0.624833 8.51087C0.50127 8.56137 0.389122 8.63536 0.294859 8.72859C0.106004 8.91494 0 9.16703 0 9.42979C0 9.69255 0.106004 9.94464 0.294859 10.131L5.98331 15.7108C6.17329 15.896 6.43029 16 6.69817 16C6.96605 16 7.22304 15.896 7.41303 15.7108L21.7001 1.69667C21.7951 1.60421 21.8705 1.4942 21.922 1.373C21.9735 1.2518 22 1.12179 22 0.990493C22 0.859192 21.9735 0.729191 21.922 0.607988C21.8705 0.486785 21.7951 0.37678 21.7001 0.284317Z" fill="#826550"/>
</symbol><symbol id="icon-indicator-radio" viewBox="0 0 27 27">
<circle cx="13.5" cy="13.5" r="13.5" fill="#826550"/>
</symbol><symbol id="icon-nav-burger" viewBox="0 0 36 20">
<path d="M0 1H36M0 19H36M0 10H36" stroke="white" stroke-width="2"/>
</symbol><symbol id="icon-nav-close" viewBox="0 0 26 26">
<path d="M0.364878 24.1561C0.153611 24.3395 0.0234784 24.5991 0.00287804 24.8781C-0.0177223 25.1572 0.0728815 25.433 0.254918 25.6455C0.467406 25.8276 0.743268 25.9182 1.02231 25.8976C1.30135 25.877 1.56092 25.7468 1.74437 25.5356L25.5356 1.74437C25.7468 1.56092 25.877 1.30135 25.8976 1.02231C25.9182 0.743268 25.8276 0.467406 25.6455 0.254918C25.433 0.0728815 25.1572 -0.0177223 24.8781 0.00287804C24.5991 0.0234784 24.3395 0.153611 24.1561 0.364878L0.364878 24.1561Z" fill="white"/>
<path d="M0.254918 0.254918C0.0728815 0.467406 -0.0177223 0.743268 0.00287804 1.02231C0.0234784 1.30135 0.153611 1.56092 0.364878 1.74437L24.1561 25.5356C24.2363 25.6621 24.344 25.769 24.4711 25.8484C24.5982 25.9277 24.7415 25.9775 24.8904 25.9939C25.0394 26.0104 25.1901 25.9932 25.3315 25.9436C25.4728 25.8939 25.6013 25.8132 25.7072 25.7072C25.8132 25.6013 25.8939 25.4728 25.9436 25.3315C25.9932 25.1901 26.0104 25.0394 25.9939 24.8904C25.9775 24.7415 25.9277 24.5982 25.8484 24.4711C25.769 24.344 25.6621 24.2363 25.5356 24.1561L1.74437 0.364878C1.56092 0.153611 1.30135 0.0234784 1.02231 0.00287804C0.743268 -0.0177223 0.467406 0.0728815 0.254918 0.254918Z" fill="white"/>
</symbol><symbol id="icon-nav-login" viewBox="0 0 16 16">
<path d="M7 2H14V14H7V16H16V0H7V2Z" fill="white"/>
<path d="M7 9H0V7H7V4L11 8L7 12V9Z" fill="white"/>
</symbol><symbol id="icon-services-beard" viewBox="0 0 23 21">
<path d="M22.729 0H22.6248C21.5827 3.26733 21.3117 7.24753 18.4563 8.76238C17.9248 7.33663 16.6117 6.68317 15.1319 6.05941C14.2137 5.54245 13.2146 5.1681 12.1722 4.9505C11.9375 4.91898 11.6986 4.96438 11.4948 5.07921C11.2939 4.9666 11.059 4.92128 10.8278 4.9505C9.78903 5.16911 8.79349 5.54343 7.87857 6.05941C6.38831 6.68317 5.08564 7.33663 4.55415 8.76238C1.67784 7.24753 1.40689 3.26733 0.37517 0H0.270956C0.151798 0.322296 0.0611651 0.653478 0 0.990099C0.0488585 5.03502 0.334149 9.07425 0.854554 13.0891C1.40689 15.7624 3.57454 17.6832 5.67966 18.9505C7.14907 19.802 9.48346 21 11.4635 21C13.4436 21 15.8405 19.802 17.3203 18.9505C19.4046 17.6832 21.5827 15.7624 22.1454 13.0891C22.6659 9.07425 22.9511 5.03502 23 0.990099C22.9388 0.653478 22.8482 0.322296 22.729 0V0ZM16.4762 11.8812C16.4165 12.244 16.2403 12.5805 15.9717 12.8445C15.7031 13.1086 15.3552 13.2874 14.9755 13.3564C13.6416 13.4257 12.9642 11.4851 11.4635 11.495C9.96285 11.505 9.28546 13.4257 7.95152 13.3564C7.57761 13.282 7.23655 13.1008 6.97396 12.8371C6.71137 12.5735 6.53977 12.24 6.4821 11.8812C6.43201 11.4544 6.47261 11.0225 6.6015 10.6109C6.73039 10.1993 6.94495 9.81649 7.23244 9.48515C7.72225 9.0297 8.49343 9.08911 9.31672 8.9802C10.102 8.92852 10.8515 8.64853 11.4635 8.17822C12.0784 8.66131 12.8356 8.95182 13.6312 9.0099C14.4649 9.11881 15.2361 9.05941 15.7155 9.51485C16.0064 9.83949 16.2262 10.216 16.3622 10.6223C16.4982 11.0286 16.5476 11.4565 16.5075 11.8812H16.4762Z" fill="#826550"/>
</symbol><symbol id="icon-services-mustache" viewBox="0 0 45 12">
<path d="M22.49 7.66533C23.4533 9.00676 24.76 10.1044 26.2927 10.8594C27.8253 11.6143 29.5357 12.003 31.27 11.9904C38.43 12.2508 45 7.13516 45 5.2191C42.22 7.53511 37.61 7.74904 35.05 6.79101C31.27 5.39582 31.93 2.61475 29.17 0.801C28.329 0.279504 27.3408 0.00122301 26.33 0.00122301C25.3192 0.00122301 24.331 0.279504 23.49 0.801C23.121 1.00811 22.7844 1.26164 22.49 1.5544C22.1934 1.26379 21.8572 1.0105 21.49 0.801C20.6474 0.278702 19.6575 0 18.645 0C17.6325 0 16.6426 0.278702 15.8 0.801C13.05 2.66125 13.71 5.38652 9.93 6.79101C7.37 7.72114 2.76 7.53511 0 5.2191C0 7.13516 6.55 12.2508 13.71 11.9904C15.4443 12.003 17.1547 11.6143 18.6873 10.8594C20.22 10.1044 21.5267 9.00676 22.49 7.66533Z" fill="#826550"/>
</symbol><symbol id="icon-services-scissors" viewBox="0 0 21 20">
<path d="M8 4C8 3.20888 7.76541 2.43552 7.32588 1.77772C6.88635 1.11992 6.26164 0.607234 5.53074 0.304484C4.79983 0.00173312 3.99556 -0.0774802 3.21964 0.0768607C2.44372 0.231202 1.73098 0.612165 1.17157 1.17157C0.612165 1.73098 0.231202 2.44372 0.0768607 3.21964C-0.0774802 3.99556 0.00173312 4.79983 0.304484 5.53074C0.607234 6.26164 1.11992 6.88635 1.77772 7.32588C2.43552 7.76541 3.20888 8 4 8C4.56063 8.02262 5.11597 7.88378 5.6 7.6L8 10L5.6 12.4C5.11597 12.1162 4.56063 11.9774 4 12C3.20888 12 2.43552 12.2346 1.77772 12.6741C1.11992 13.1136 0.607234 13.7384 0.304484 14.4693C0.00173312 15.2002 -0.0774802 16.0044 0.0768607 16.7804C0.231202 17.5563 0.612165 18.269 1.17157 18.8284C1.73098 19.3878 2.44372 19.7688 3.21964 19.9231C3.99556 20.0775 4.79983 19.9983 5.53074 19.6955C6.26164 19.3928 6.88635 18.8801 7.32588 18.2223C7.76541 17.5645 8 16.7911 8 16C8.02262 15.4394 7.88378 14.884 7.6 14.4L10 12L17 19H21L7.6 5.6C7.88378 5.11597 8.02262 4.56063 8 4ZM4 6C3.60444 6 3.21776 5.8827 2.88886 5.66294C2.55996 5.44318 2.30362 5.13082 2.15224 4.76537C2.00087 4.39992 1.96126 3.99778 2.03843 3.60982C2.1156 3.22186 2.30608 2.86549 2.58579 2.58579C2.86549 2.30608 3.22186 2.1156 3.60982 2.03843C3.99778 1.96126 4.39992 2.00087 4.76537 2.15224C5.13082 2.30362 5.44318 2.55996 5.66294 2.88886C5.8827 3.21776 6 3.60444 6 4C6 4.53044 5.78929 5.03914 5.41422 5.41422C5.03914 5.78929 4.53044 6 4 6ZM4 18C3.60444 18 3.21776 17.8827 2.88886 17.6629C2.55996 17.4432 2.30362 17.1308 2.15224 16.7654C2.00087 16.3999 1.96126 15.9978 2.03843 15.6098C2.1156 15.2219 2.30608 14.8655 2.58579 14.5858C2.86549 14.3061 3.22186 14.1156 3.60982 14.0384C3.99778 13.9613 4.39992 14.0009 4.76537 14.1522C5.13082 14.3036 5.44318 14.56 5.66294 14.8889C5.8827 15.2178 6 15.6044 6 16C6 16.5304 5.78929 17.0391 5.41422 17.4142C5.03914 17.7893 4.53044 18 4 18ZM10 9.5C10.0989 9.5 10.1956 9.52933 10.2778 9.58427C10.36 9.63921 10.4241 9.7173 10.4619 9.80866C10.4998 9.90002 10.5097 10.0006 10.4904 10.0975C10.4711 10.1945 10.4235 10.2836 10.3536 10.3536C10.2836 10.4235 10.1945 10.4711 10.0975 10.4904C10.0006 10.5097 9.90002 10.4998 9.80866 10.4619C9.7173 10.4241 9.63921 10.36 9.58427 10.2778C9.52933 10.1956 9.5 10.0989 9.5 10C9.49558 9.9332 9.50549 9.86622 9.52905 9.80355C9.55262 9.74089 9.5893 9.68398 9.63664 9.63664C9.68398 9.5893 9.74089 9.55262 9.80355 9.52905C9.86622 9.50549 9.9332 9.49558 10 9.5ZM21 1H17L11 7L13 9L21 1Z" fill="#826550"/>
</symbol><symbol id="icon-social-facebook" viewBox="0 0 18 39">
<path d="M4.6588 39V22.0042H0V14.3584H4.76532V8.03139C4.76532 8.03139 4.98274 0.0619276 11.095 0H17.8977V7.50299H13.678C13.678 7.50299 11.8963 7.50299 11.8963 9.74534C11.8963 11.9829 11.8963 14.4918 11.8963 14.4918H18L17.2669 22.1328H12.0028V39H4.6588Z" fill="white"/>
</symbol><symbol id="icon-social-instagram" viewBox="0 0 36 36">
<path d="M36 0H0V36H36V0ZM18 11.4C21.6456 11.4 24.6 14.3556 24.6 18C24.6 21.6432 21.6456 24.6 18 24.6C14.3556 24.6 11.4 21.6432 11.4 18C11.4 14.3556 14.3556 11.4 18 11.4ZM31.2 31.2H4.8V15H7.6308C7.356 15.9528 7.2 16.9584 7.2 18C7.2 23.964 12.0372 28.8 18 28.8C23.9664 28.8 28.8 23.964 28.8 18C28.8 16.9584 28.644 15.9528 28.3692 15H31.2V31.2ZM31.2 6.0096V9.6288V10.8C31.2 10.8 30.6636 10.7868 30.0192 10.7976V10.8H26.4C25.746 10.8 25.2 10.8 25.2 10.8V4.8H30L30.0192 4.8036C30.0192 4.8036 31.2 4.8096 31.2 4.8C31.2 4.8 31.1976 6.006 31.1976 6.0096H31.2Z" fill="white"/>
</symbol><symbol id="icon-social-vk" viewBox="0 0 23 26">
<path d="M21.0578 23.1669C22.3524 21.6495 23 19.9256 23 17.9952C23 14.77 20.3795 12.5167 16.7104 11.704C18.2892 11.3102 19.476 10.8769 20.2725 9.82914C21.0685 8.78136 21.4666 7.60888 21.4666 6.31371C21.4666 4.53562 20.7811 3.46042 19.4104 2.07623C18.0395 0.69205 15.8589 0 12.8681 0H0V26H13.5008C17.7378 26.0001 19.7631 24.6843 21.0578 23.1669ZM7.15553 5.14199H10.3755C12.3139 5.14199 13.2834 5.80362 13.2834 7.25114C13.2834 7.78441 13.0757 8.78752 12.6605 9.2572C12.2449 9.72704 11.5314 9.96192 10.5209 9.96192H7.15562V5.14199H7.15553ZM7.11795 20.2097V15.4858H11.0644C12.3381 15.4858 13.2142 15.7367 13.6918 16.2381C14.1692 16.7398 14.4086 17.2887 14.4086 17.8858C14.4086 18.4829 14.1625 19.0189 13.6712 19.4953C13.1794 19.9719 12.4072 20.2097 11.3551 20.2097H7.11795Z" fill="white"/>
</symbol><symbol id="icon-user-login" viewBox="0 0 14 16">
<path d="M12.4822 12.4768L9.57478 11.0874C9.30056 10.9562 9.13013 10.6927 9.13013 10.3994V9.41585C9.19983 9.3344 9.27317 9.2416 9.34896 9.1392C9.72604 8.63011 10.0283 8.06342 10.248 7.45222C10.6774 7.264 10.9562 6.85818 10.9562 6.4V5.23636C10.9562 4.95622 10.8467 4.6848 10.6519 4.47273V2.92538C10.6689 2.76538 10.7359 1.81295 10.0152 1.0272C9.39004 0.3456 8.37565 0 6.9997 0C5.62374 0 4.60935 0.3456 3.98422 1.02691C3.26352 1.81265 3.33048 2.76538 3.34752 2.92509V4.47244C3.15274 4.68451 3.04317 4.95593 3.04317 5.23607V6.39971C3.04317 6.75375 3.21148 7.08393 3.49878 7.30415C3.77756 8.35927 4.361 9.15433 4.56491 9.40945V10.3721C4.56491 10.6537 4.40422 10.912 4.14583 11.047L1.43074 12.4625C0.54813 12.9228 0 13.8054 0 14.7665V16H14V14.8239C13.9997 13.8237 13.4181 12.9242 12.4822 12.4768Z" fill="black"/>
</symbol><symbol id="icon-user-password" viewBox="0 0 14 16">
<path d="M13.3636 5.71429H12.7272V5.14285C12.7272 2.30253 10.1631 0 6.99998 0C3.8369 0 1.27271 2.30253 1.27271 5.14285V5.71429H0.636375C0.284909 5.71429 0 5.97013 0 6.28573V15.4286C0 15.7442 0.284909 16 0.636375 16H13.3636C13.7151 16 14 15.7442 14 15.4286V6.2857C14 5.97013 13.7151 5.71429 13.3636 5.71429ZM8.79989 10.85C8.60768 11.3383 8.18004 11.7223 7.63636 11.8949V13.1429C7.63636 13.4585 7.35145 13.7143 6.99998 13.7143C6.64852 13.7143 6.36361 13.4585 6.36361 13.1429V11.8949C5.36954 11.5793 4.8486 10.5998 5.20007 9.70717C5.55153 8.81454 6.64229 8.34676 7.63636 8.66236C8.63043 8.97796 9.15136 9.95741 8.79989 10.85ZM11.4545 5.71429H2.54546V5.14285C2.54546 2.9337 4.53983 1.14285 7.00002 1.14285C9.46021 1.14285 11.4545 2.9337 11.4545 5.14285V5.71429Z" fill="black"/>
</symbol></svg>